# xmcd
#
# Track frame offsets: 
#        150
#        16925
#        32651
#        50524
#        65066
#        82268
#        96253
#        112904
#        133804
#        155070
#        172213
#        190630
#        213925
#        236065
#        253590
#        270233
#
# Disc length: 3822 seconds
#
# Revision: 0
# Processed by: cddbd v1.5.2PL0 Copyright (c) Steve Scherf et al.
# Submitted via: ExactAudioCopy v1.0b1
#
DISCID=e20eec10
DTITLE=Bonnie Raitt - Something To Talk About
DYEAR=2011
DGENRE=Blues
TTITLE0=You've Been In Love Too Long
TTITLE1=Everybody's Cryin' Mercy
TTITLE2=Angel From Montgomery
TTITLE3=Love Me Like A Man
TTITLE4=Love Has No Pride
TTITLE5=Fool Yourself
TTITLE6=I Will Not Be Broken
TTITLE7=One Belief Away
TTITLE8=Spit Of Love
TTITLE9=Something To Talk About
TTITLE10=Nick Of Time
TTITLE11=Hear Me Lord
TTITLE12=I Will Not Be Denied
TTITLE13=Thing Called Love
TTITLE14=Love Sneakin' Up On You
TTITLE15=Dimming Of The Day
EXTD=
EXTT0=
EXTT1=
EXTT2=
EXTT3=
EXTT4=
EXTT5=
EXTT6=
EXTT7=
EXTT8=
EXTT9=
EXTT10=
EXTT11=
EXTT12=
EXTT13=
EXTT14=
EXTT15=
PLAYORDER=
